<?xml version="1.0" encoding="UTF-8"?>
<svg version="1.1" xmlns="http://www.w3.org/2000/svg" width="960" height="960">
<path d="M0 0 C4.25473339 0.82955664 5.49212781 2.47396149 8.125 5.9375 C11.9466612 10.79000403 15.99529811 15.14026131 20.4453125 19.41796875 C22.45924665 21.45345877 24.32116339 23.50353031 26.18359375 25.671875 C30.53967996 30.69772122 35.22589632 35.37210383 39.9375 40.0625 C40.79279297 40.92166016 41.64808594 41.78082031 42.52929688 42.66601562 C46.93199518 47.06199738 51.39748755 51.30843482 56.11694336 55.36206055 C59.27053261 58.10514758 62.2794858 61.00019493 65.3125 63.875 C70.5394866 68.79493773 75.85862862 73.45374682 81.46875 77.93359375 C84.00138153 80.00112782 86.4073116 82.16113341 88.8125 84.375 C93.78070323 88.89653512 99.00803577 93.01152206 104.3125 97.125 C107.36074183 99.49012633 110.36550736 101.90408792 113.36181641 104.33447266 C122.67579738 111.8748365 132.30694839 118.95717538 142 126 C142.7518457 126.5480127 143.50369141 127.09602539 144.27832031 127.66064453 C177.32198664 151.73779693 211.38613801 174.25439604 246 196 C246.90073242 196.56702637 247.80146484 197.13405273 248.72949219 197.71826172 C263.86530196 207.24288726 279.11227775 216.57451659 294.41357422 225.82958984 C300.38425033 229.44169126 306.34802469 233.06517257 312.3125 236.6875 C313.48673293 237.40055684 314.66096794 238.11361024 315.83520508 238.82666016 C318.12555611 240.21749907 320.4158241 241.60847445 322.70605469 242.99951172 C324.8445661 244.29827858 326.98322915 245.5967958 329.12207031 246.89501953 C342.7920087 255.19319978 356.42159665 263.55284234 370 272 C370.93924316 272.58362305 371.87848633 273.16724609 372.84619141 273.76855469 C379.90962157 278.15975012 386.96016243 282.57108196 394 287 C394.9895166 287.62213379 395.9790332 288.24426758 396.99853516 288.88525391 C420.78177976 303.87456322 444.22358092 319.51458112 467 336 C467.75635742 336.54672363 468.51271484 337.09344727 469.29199219 337.65673828 C478.85991761 344.59222884 488.26455001 351.68343845 497.44140625 359.12890625 C500.4167132 361.54200194 503.4330662 363.8967407 506.46313477 366.24047852 C512.40583259 370.84507469 518.04717005 375.62768094 523.5625 380.7421875 C525.63530407 382.66218871 527.73583268 384.52996818 529.875 386.375 C539.72460462 394.98355444 549.11579169 404.01405024 558.375 413.25 C558.84899231 413.72140411 559.32298462 414.19280823 559.81134033 414.67849731 C565.43280965 420.2757519 570.86176582 425.95640191 576 432 C576.845625 432.96421875 577.69125 433.9284375 578.5625 434.921875 C595.8632044 454.99512818 611.10911457 476.8502987 624 500 C624.46905762 500.84095215 624.93811523 501.6819043 625.42138672 502.54833984 C633.88055221 517.86854954 640.91717704 533.5941957 647 550 C647.45133301 551.2055957 647.90266602 552.41119141 648.36767578 553.65332031 C654.00829629 569.04865715 657.48642568 582.39415953 655.41064453 598.75683594 C655.02878499 601.77266362 654.70372222 604.79064238 654.39552307 607.81477356 C650.54965757 645.34332111 642.46475029 682.42736112 627 717 C624 716 624 716 622.85595703 713.72875977 C622.49356934 712.72643311 622.13118164 711.72410645 621.7578125 710.69140625 C621.33854492 709.56516846 620.91927734 708.43893066 620.48730469 707.27856445 C620.03774414 706.05226318 619.58818359 704.82596191 619.125 703.5625 C607.82255988 673.66617221 592.11981616 645.60900352 573 620 C572.47164551 619.28908203 571.94329102 618.57816406 571.39892578 617.84570312 C562.25160427 605.58411098 552.60857254 593.85126678 542.30541992 582.54052734 C540.84808549 580.93457351 539.3978856 579.32209045 537.95776367 577.70068359 C532.47682325 571.53550082 526.78321077 565.63137506 520.9375 559.8125 C520.09123047 558.96236328 519.24496094 558.11222656 518.37304688 557.23632812 C513.96371477 552.8337953 509.48873189 548.57799141 504.76245117 544.51733398 C502.35224729 542.44233507 500.02343776 540.28292695 497.6875 538.125 C492.28514654 533.20433786 486.69899997 528.57115069 481 524 C479.89157874 523.09938688 478.78352207 522.19832492 477.67578125 521.296875 C470.59675976 515.55844442 463.40680588 509.9788062 456.125 504.5 C454.9959021 503.64801025 454.9959021 503.64801025 453.84399414 502.77880859 C439.97528171 492.40444936 425.66820219 482.65175365 411.25 473.0625 C410.46729736 472.54119507 409.68459473 472.01989014 408.87817383 471.48278809 C396.73404761 463.40050081 384.50483813 455.51552075 372 448 C370.37870997 447.01725083 368.75761925 446.03417277 367.13671875 445.05078125 C346.00480546 432.26751046 324.59720412 419.97801485 303 408 C301.83137434 407.35124755 300.66275466 406.70248432 299.49414062 406.05371094 C284.42530605 397.69179798 269.30058848 389.44152019 254.1171875 381.2890625 C236.83997459 372.00925663 219.66774176 362.53597579 202.50697327 353.04302979 C198.37427849 350.75751635 194.23684544 348.48077054 190.09765625 346.20703125 C161.79841484 330.62648102 133.58614227 314.39473628 107 296 C106.38705078 295.5771875 105.77410156 295.154375 105.14257812 294.71875 C89.10163263 283.62414793 73.58036624 271.96652529 59 259 C58.4539209 258.51708496 57.9078418 258.03416992 57.34521484 257.53662109 C29.29404778 232.61427005 5.43587416 201.09547413 0 163 C-0.0862535 160.69805411 -0.12202922 158.39392314 -0.12025452 156.09036255 C-0.12110894 155.41961697 -0.12196337 154.74887138 -0.12284368 154.05780017 C-0.12448287 151.82382476 -0.11900283 149.58992545 -0.11352539 147.35595703 C-0.11324316 145.74918113 -0.11340196 144.1424051 -0.1139679 142.53562927 C-0.11425445 138.18280627 -0.10838058 133.8300109 -0.10139394 129.47719431 C-0.09513686 124.92481025 -0.09455474 120.37242554 -0.09336853 115.82003784 C-0.09026216 107.20352671 -0.08205812 98.5870283 -0.07201904 89.97052276 C-0.06083635 80.15920565 -0.05534202 70.34788792 -0.05032361 60.53656602 C-0.03987494 40.35770359 -0.02228893 20.1788526 0 0 Z " fill="#0A7DAD" transform="translate(152,26)"/>
<path d="M0 0 C0.99 0 1.98 0 3 0 C4.734375 1.84375 4.734375 1.84375 6.75 4.5 C17.59848658 18.12487651 30.15261093 30.24913731 42.4375 42.5625 C43.09511322 43.22279205 43.75272644 43.88308411 44.43026733 44.56338501 C54.42600852 54.59142864 54.42600852 54.59142864 65 64 C66.10687279 64.96062417 67.21236742 65.92283886 68.31640625 66.88671875 C97.60419602 92.2203218 129.37876915 114.7647412 163 134 C163.72977051 134.41862305 164.45954102 134.83724609 165.21142578 135.26855469 C176.1892509 141.53393567 187.38332847 147.37831696 198.60546875 153.19140625 C202.93084645 155.4346666 207.21984112 157.73436019 211.5 160.0625 C220.41074164 164.86527664 229.59413387 169.11280329 238.73828125 173.44775391 C245.78003246 176.79891066 252.79668443 180.20240515 259.81689453 183.59838867 C261.05759794 184.19844474 262.29832066 184.79846089 263.5390625 185.3984375 C264.15605011 185.69682022 264.77303772 185.99520294 265.40872192 186.30262756 C269.69148799 188.3721453 273.98103072 190.42712954 278.2734375 192.4765625 C329.31218353 216.87104646 378.551896 244.45138033 422 281 C422.53157715 281.44666016 423.0631543 281.89332031 423.61083984 282.35351562 C425.36961868 283.83512014 427.12318476 285.32267012 428.875 286.8125 C429.39151123 287.24957275 429.90802246 287.68664551 430.44018555 288.13696289 C441.88746848 297.93976997 452.63308486 308.47044894 463.26806641 319.13769531 C465.38981009 321.26484784 467.51691491 323.38653561 469.64453125 325.5078125 C471.0211544 326.88509583 472.39746766 328.26268899 473.7734375 329.640625 C474.39648773 330.261651 475.01953796 330.882677 475.66146851 331.52252197 C479.97037628 335.85413608 484.01901712 340.3666774 488 345 C488.97333078 346.11773429 489.94718183 347.23501605 490.921875 348.3515625 C496.88705428 355.23918146 502.64029443 362.25148885 508.2265625 369.44921875 C510.09104185 371.84895849 511.98151688 374.2239756 513.8984375 376.58203125 C521.65231991 386.12340108 528.90613824 395.95993653 536 406 C536.6295459 406.88751953 537.2590918 407.77503906 537.90771484 408.68945312 C547.13274033 421.71783849 556.06327462 434.90724688 564.44238281 448.49853516 C565.53560406 450.2542005 566.65743603 451.9922183 567.79980469 453.71630859 C568.36860352 454.59754395 568.93740234 455.4787793 569.5234375 456.38671875 C570.30726807 457.57140747 570.30726807 457.57140747 571.10693359 458.7800293 C572 461 572 461 571.25878906 463.18579102 C569.8264686 465.25009927 568.31706035 466.6561178 566.375 468.25 C563.49701111 470.67846459 560.80381529 473.16697881 558.1875 475.875 C554.34541867 479.76940539 550.21820338 483.1852488 545.953125 486.60546875 C543.46482404 488.62309903 541.03143054 490.68843489 538.61181641 492.78735352 C523.4208992 505.90286492 507.04351928 517.43243561 490 528 C489.28424805 528.44585449 488.56849609 528.89170898 487.83105469 529.35107422 C485.8978111 530.54432685 483.95354837 531.71535822 482 532.875 C480.9275 533.51179687 479.855 534.14859375 478.75 534.8046875 C475.71344955 536.12455176 474.98713985 536.16794074 472 535 C470.39945909 532.62510215 469.03807595 530.32482529 467.6875 527.8125 C458.57020328 511.62471787 447.85646604 496.3006006 436 482 C435.54141602 481.44521973 435.08283203 480.89043945 434.61035156 480.31884766 C425.43051815 469.25426584 415.83716154 458.65025081 405.67138672 448.48608398 C404.1282647 446.94076934 402.59335694 445.38759554 401.05859375 443.83398438 C394.69653125 437.43641618 388.06570791 431.62532956 381 426 C379.91003332 425.07678532 378.82540576 424.14716696 377.75 423.20703125 C348.10628943 397.39510713 313.45602164 376.65512454 279 358 C278.02885254 357.47003418 277.05770508 356.94006836 276.05712891 356.39404297 C251.14227564 342.80723948 225.79274719 330.10103121 200.15625 317.93359375 C187.05773047 311.70914545 174.02763079 305.34045651 160.99713135 298.97515869 C159.15146426 298.07395692 157.30501483 297.17435784 155.45849609 296.27490234 C140.65144421 289.04719754 126.2556672 281.26001895 112 273 C110.43629354 272.10269792 108.8724969 271.20555297 107.30859375 270.30859375 C60.02862589 243.02966375 18.18005987 206.82209998 2 153 C1.72814928 152.10259912 1.72814928 152.10259912 1.45080662 151.18706894 C0.87219375 148.37995347 0.85867499 145.72941204 0.84178162 142.86236572 C0.8319928 141.60315811 0.82220398 140.3439505 0.81211853 139.04658508 C0.80621474 137.65377846 0.80040427 136.26097143 0.79467773 134.86816406 C0.7850962 133.39960964 0.77508596 131.93105796 0.76467896 130.46250916 C0.73765362 126.47735348 0.71663122 122.49218599 0.69667697 118.50698948 C0.6748028 114.34161288 0.64742111 110.17627259 0.62062073 106.01092529 C0.57071321 98.12394246 0.52576717 90.23693945 0.48259836 82.34991717 C0.43320941 73.37052753 0.37829743 64.39117433 0.32291877 55.41181993 C0.20912851 36.94124713 0.10228303 18.47063993 0 0 Z " fill="#0A7DAD" transform="translate(152,364)"/>
<path d="M0 0 C0 49.83 0 99.66 0 151 C-7.68861604 154.84430802 -15.23514227 158.61209437 -23.05200195 162.11889648 C-67.7752437 182.21895039 -107.95499388 208.98202254 -145 241 C-148.0087473 239.58366857 -150.6552554 237.92912774 -153.3671875 236.0078125 C-154.23714355 235.39550781 -155.10709961 234.78320312 -156.00341797 234.15234375 C-156.95104004 233.48332031 -157.89866211 232.81429687 -158.875 232.125 C-179.57302786 217.62806804 -200.66904324 203.73325197 -222 190.1875 C-225.69951554 187.83773385 -229.36862177 185.45363394 -233 183 C-228.48407854 152.41749389 -189.58351841 116.92259407 -166.640625 99.08203125 C-164.07238612 97.05707367 -161.62761304 94.93916299 -159.17578125 92.77709961 C-151.25206569 85.81602646 -142.86053735 79.65217356 -134.24072266 73.58496094 C-132.12104332 72.08561922 -130.01740322 70.56657326 -127.91796875 69.0390625 C-109.47231255 55.69073266 -89.88824648 44.05145418 -70 33 C-69.10474609 32.49823242 -68.20949219 31.99646484 -67.28710938 31.47949219 C-49.56106952 21.56715066 -31.36055476 12.66467813 -13 4 C-12.06655762 3.55414551 -11.13311523 3.10829102 -10.17138672 2.64892578 C-8.98633545 2.09760986 -8.98633545 2.09760986 -7.77734375 1.53515625 C-7.12886475 1.23101807 -6.48038574 0.92687988 -5.81225586 0.61352539 C-4 0 -4 0 0 0 Z " fill="#DF9411" transform="translate(808,26)"/>
<path d="M0 0 C4.12368869 1.5815559 6.5873697 4.58705552 9.4375 7.8125 C18.11021389 17.4107711 27.11236998 26.64574576 37 35 C38.01289941 35.88667391 39.02449966 36.77483301 40.03515625 37.6640625 C60.83412672 55.8808019 83.88549014 71.50754363 108 85 C108.81678223 85.46374023 109.63356445 85.92748047 110.47509766 86.40527344 C134.60596784 100.06290827 159.89889233 111.5060014 185.25219727 122.68383789 C217.22604795 136.78575753 249.46368263 151.12347964 277 173 C277.88429688 173.69222656 278.76859375 174.38445312 279.6796875 175.09765625 C290.18117755 183.48362874 300.53091052 192.52747 309 203 C309.88626324 204.05116547 310.77303078 205.10190585 311.66015625 206.15234375 C339 238.96554872 339 238.96554872 339 251 C280.39703059 254.78271401 220.81935036 243.67590862 168.76220703 215.93408203 C166.97487903 214.98668428 165.1750597 214.06760894 163.37109375 213.15234375 C146.41353097 204.45939479 130.87700939 193.86906777 116 182 C114.98292969 181.19691406 113.96585937 180.39382813 112.91796875 179.56640625 C95.19987778 165.34630749 77.77097458 149.09899516 64 131 C62.91901636 129.64395691 61.83544272 128.28997646 60.75 126.9375 C35.23113455 94.95529548 0 42.3059286 0 0 Z " fill="#0A7DAD" transform="translate(162,683)"/>
<path d="M0 0 C0 43.89 0 87.78 0 133 C-4.08201279 131.63932907 -4.65440898 129.7201905 -6.875 126.0625 C-14.79657074 113.3417416 -23.60258583 101.27156384 -33.4375 89.96484375 C-35.94191847 87.06720103 -38.35170737 84.11071228 -40.75 81.125 C-43.77415438 77.40668918 -46.90708077 73.97211881 -50.3515625 70.64453125 C-52.00265131 68.99735498 -53.49642127 67.28216058 -55 65.5 C-58.68428795 61.2268989 -62.64326445 57.24324346 -66.625 53.25 C-67.27082031 52.59966797 -67.91664063 51.94933594 -68.58203125 51.27929688 C-71.291842 48.57786698 -73.91630123 46.06404391 -76.9609375 43.734375 C-77.97027344 42.87585938 -77.97027344 42.87585938 -79 42 C-79 41.01 -79 40.02 -79 39 C-35.66093048 14.88230758 -35.66093048 14.88230758 -13.75 4.75 C-12.20348755 4.03203247 -12.20348755 4.03203247 -10.62573242 3.29956055 C-9.1945105 2.6485437 -9.1945105 2.6485437 -7.734375 1.984375 C-6.89100586 1.59991211 -6.04763672 1.21544922 -5.17871094 0.81933594 C-3 0 -3 0 0 0 Z " fill="#DF9411" transform="translate(808,280)"/>
</svg>
